<?xml version="1.0" encoding="UTF-8"?>
<svg width="1990px" height="388px" viewBox="0 0 1990 388" version="1.1" xmlns="http://www.w3.org/2000/svg" xmlns:xlink="http://www.w3.org/1999/xlink">
    <title>Slice</title>
    <g id="Page-1" stroke="none" stroke-width="1" fill="none" fill-rule="evenodd">
        <g id="Dark" transform="translate(-232.000000, -1019.000000)">
            <g id="Ethicode" transform="translate(239.470703, 1019.046875)" fill-rule="nonzero">
                <path d="M239.990234,376.953125 L239.990234,306.884766 L70.0683594,306.884766 L70.0683594,237.060547 L185.058594,237.060547 L185.058594,166.992188 L70.0683594,166.992188 L70.0683594,96.9238281 L239.990234,96.9238281 L239.990234,26.8554688 L0,26.8554688 L0,376.953125 L239.990234,376.953125 Z M463.623047,376.953125 L463.623047,310.546875 L413.085938,310.546875 C406.08724,310.546875 399.495443,309.204102 393.310547,306.518555 C387.125651,303.833008 381.754557,300.211589 377.197266,295.654297 C372.639974,291.097005 369.059245,285.766602 366.455078,279.663086 C363.850911,273.55957 362.548828,267.008464 362.548828,260.009766 L362.548828,260.009766 L362.548828,182.373047 L463.623047,182.373047 L463.623047,115.966797 L362.548828,115.966797 L362.548828,11.4746094 L296.142578,11.4746094 L296.142578,115.966797 L263.671875,115.966797 L263.671875,182.373047 L296.142578,182.373047 L296.142578,260.009766 C296.142578,276.123047 299.194336,291.259766 305.297852,305.419922 C311.401367,319.580078 319.783529,331.99056 330.444336,342.651367 C341.105143,353.312174 353.515625,361.694336 367.675781,367.797852 C381.835938,373.901367 396.972656,376.953125 413.085938,376.953125 L413.085938,376.953125 L463.623047,376.953125 Z M567.626953,376.953125 L567.626953,227.539062 C567.626953,220.703125 568.929036,214.233398 571.533203,208.129883 C574.13737,202.026367 577.718099,196.695964 582.275391,192.138672 C586.832682,187.58138 592.203776,184.000651 598.388672,181.396484 C604.573568,178.792318 611.165365,177.490234 618.164062,177.490234 C625,177.490234 631.429036,178.792318 637.451172,181.396484 C643.473307,184.000651 648.763021,187.58138 653.320312,192.138672 C657.877604,196.695964 661.458333,202.026367 664.0625,208.129883 C666.666667,214.233398 667.96875,220.703125 667.96875,227.539062 L667.96875,227.539062 L667.480469,227.539062 L667.480469,376.953125 L734.619141,376.953125 L734.619141,227.539062 C734.619141,211.425781 731.567383,196.248372 725.463867,182.006836 C719.360352,167.765299 711.05957,155.314128 700.561523,144.65332 C690.063477,133.992513 677.734375,125.610352 663.574219,119.506836 C649.414062,113.40332 634.277344,110.351562 618.164062,110.351562 C609.375,110.351562 600.748698,111.612956 592.285156,114.135742 C583.821615,116.658529 575.602214,120.93099 567.626953,126.953125 L567.626953,126.953125 L567.626953,11.4746094 L500.976562,11.4746094 L500.976562,376.953125 L567.626953,376.953125 Z M815.673828,88.8671875 C821.858724,88.8671875 827.677409,87.6871745 833.129883,85.3271484 C838.582357,82.9671224 843.343099,79.7932943 847.412109,75.8056641 C851.48112,71.8180339 854.695638,67.1386719 857.055664,61.7675781 C859.41569,56.3964844 860.595703,50.6184896 860.595703,44.4335938 C860.595703,38.4114583 859.41569,32.6741536 857.055664,27.2216797 C854.695638,21.7692057 851.48112,17.0491536 847.412109,13.0615234 C843.343099,9.07389323 838.582357,5.9000651 833.129883,3.54003906 C827.677409,1.18001302 821.858724,0 815.673828,0 C809.488932,0 803.670247,1.18001302 798.217773,3.54003906 C792.765299,5.9000651 788.045247,9.07389323 784.057617,13.0615234 C780.069987,17.0491536 776.896159,21.7692057 774.536133,27.2216797 C772.176107,32.6741536 770.996094,38.4114583 770.996094,44.4335938 C770.996094,50.6184896 772.176107,56.3964844 774.536133,61.7675781 C776.896159,67.1386719 780.069987,71.8180339 784.057617,75.8056641 C788.045247,79.7932943 792.765299,82.9671224 798.217773,85.3271484 C803.670247,87.6871745 809.488932,88.8671875 815.673828,88.8671875 Z M849.121094,376.953125 L849.121094,115.478516 L781.982422,115.478516 L781.982422,376.953125 L849.121094,376.953125 Z M1019.04297,381.835938 C1029.94792,381.835938 1040.56803,380.574544 1050.90332,378.051758 C1061.23861,375.528971 1071.08561,371.826172 1080.44434,366.943359 C1089.80306,362.060547 1098.51074,356.119792 1106.56738,349.121094 C1114.62402,342.122396 1121.74479,334.228516 1127.92969,325.439453 L1127.92969,325.439453 L1079.10156,276.367188 C1076.4974,282.226562 1073.12012,287.556966 1068.96973,292.358398 C1064.81934,297.159831 1060.09928,301.228841 1054.80957,304.56543 C1049.51986,307.902018 1043.86393,310.465495 1037.8418,312.255859 C1031.81966,314.046224 1025.55339,314.941406 1019.04297,314.941406 C1009.92839,314.941406 1001.34277,313.232422 993.286133,309.814453 C985.229492,306.396484 978.230794,301.676432 972.290039,295.654297 C966.349284,289.632161 961.669922,282.633464 958.251953,274.658203 C954.833984,266.682943 953.125,258.138021 953.125,249.023438 C953.125,237.792969 954.833984,227.539062 958.251953,218.261719 C961.669922,208.984375 966.349284,200.968424 972.290039,194.213867 C978.230794,187.45931 985.229492,182.210286 993.286133,178.466797 C1001.34277,174.723307 1009.92839,172.851562 1019.04297,172.851562 C1025.55339,172.851562 1031.90104,173.828125 1038.08594,175.78125 C1044.27083,177.734375 1050.00814,180.582682 1055.29785,184.326172 C1060.58757,188.069661 1065.34831,192.667643 1069.58008,198.120117 C1073.81185,203.572591 1077.14844,209.716797 1079.58984,216.552734 L1079.58984,216.552734 L1128.41797,167.480469 C1122.55859,157.552083 1115.60059,148.763021 1107.54395,141.113281 C1099.4873,133.463542 1090.69824,126.993815 1081.17676,121.704102 C1071.65527,116.414388 1061.64551,112.386068 1051.14746,109.619141 C1040.64941,106.852214 1029.94792,105.46875 1019.04297,105.46875 C1000.65104,105.46875 983.357747,109.21224 967.163086,116.699219 C950.968424,124.186198 936.808268,134.399414 924.682617,147.338867 C912.556966,160.27832 902.994792,175.455729 895.996094,192.871094 C888.997396,210.286458 885.498047,229.003906 885.498047,249.023438 C885.498047,267.415365 888.997396,284.667969 895.996094,300.78125 C902.994792,316.894531 912.556966,330.973307 924.682617,343.017578 C936.808268,355.061849 950.968424,364.542643 967.163086,371.459961 C983.357747,378.377279 1000.65104,381.835938 1019.04297,381.835938 Z" id="Ethic" fill="#EEEEEE"></path>
                <path d="M1276.12305,381.835938 C1294.67773,381.835938 1312.05241,378.295898 1328.24707,371.21582 C1344.44173,364.135742 1358.5612,354.451497 1370.60547,342.163086 C1382.64974,329.874674 1392.17122,315.307617 1399.16992,298.461914 C1406.16862,281.616211 1409.66797,263.427734 1409.66797,243.896484 C1409.66797,223.063151 1406.16862,204.142253 1399.16992,187.133789 C1392.17122,170.125326 1382.64974,155.558268 1370.60547,143.432617 C1358.5612,131.306966 1344.44173,121.948242 1328.24707,115.356445 C1312.05241,108.764648 1294.67773,105.46875 1276.12305,105.46875 C1257.73112,105.46875 1240.43783,108.968099 1224.24316,115.966797 C1208.0485,122.965495 1193.88835,132.609049 1181.7627,144.897461 C1169.63704,157.185872 1160.07487,171.79362 1153.07617,188.720703 C1146.07747,205.647786 1142.57812,224.039714 1142.57812,243.896484 C1142.57812,263.427734 1146.07747,281.616211 1153.07617,298.461914 C1160.07487,315.307617 1169.63704,329.874674 1181.7627,342.163086 C1193.88835,354.451497 1208.0485,364.135742 1224.24316,371.21582 C1240.43783,378.295898 1257.73112,381.835938 1276.12305,381.835938 Z M1276.12305,314.941406 C1267.00846,314.941406 1258.42285,313.110352 1250.36621,309.448242 C1242.30957,305.786133 1235.31087,300.78125 1229.37012,294.433594 C1223.42936,288.085938 1218.75,280.598958 1215.33203,271.972656 C1211.91406,263.346354 1210.20508,253.98763 1210.20508,243.896484 C1210.20508,233.154297 1211.91406,223.429362 1215.33203,214.72168 C1218.75,206.013997 1223.42936,198.527018 1229.37012,192.260742 C1235.31087,185.994466 1242.30957,181.193034 1250.36621,177.856445 C1258.42285,174.519857 1267.00846,172.851562 1276.12305,172.851562 C1285.23763,172.851562 1293.82324,174.519857 1301.87988,177.856445 C1309.93652,181.193034 1316.97591,185.994466 1322.99805,192.260742 C1329.02018,198.527018 1333.78092,206.013997 1337.28027,214.72168 C1340.77962,223.429362 1342.5293,233.154297 1342.5293,243.896484 C1342.5293,254.475911 1340.77962,264.160156 1337.28027,272.949219 C1333.78092,281.738281 1329.02018,289.22526 1322.99805,295.410156 C1316.97591,301.595052 1309.93652,306.396484 1301.87988,309.814453 C1293.82324,313.232422 1285.23763,314.941406 1276.12305,314.941406 Z" id="o" fill="#00BCD4"></path>
                <path d="M1565.67383,381.835938 C1574.13737,381.835938 1582.47884,380.777995 1590.69824,378.662109 C1598.91764,376.546224 1606.93359,373.657227 1614.74609,369.995117 C1622.55859,366.333008 1630.00488,362.019857 1637.08496,357.055664 C1644.16504,352.091471 1650.87891,346.761068 1657.22656,341.064453 L1657.22656,341.064453 L1683.10547,376.953125 L1699.21875,376.953125 L1699.21875,11.4746094 L1632.08008,11.4746094 L1632.08008,133.544922 C1628.49935,128.336589 1624.10482,123.942057 1618.89648,120.361328 C1613.68815,116.780599 1608.11361,113.891602 1602.17285,111.694336 C1596.2321,109.49707 1590.12858,107.910156 1583.8623,106.933594 C1577.59603,105.957031 1571.5332,105.46875 1565.67383,105.46875 C1547.2819,105.46875 1529.98861,108.968099 1513.79395,115.966797 C1497.59928,122.965495 1483.43913,132.64974 1471.31348,145.019531 C1459.18783,157.389323 1449.62565,172.03776 1442.62695,188.964844 C1435.62826,205.891927 1432.12891,224.202474 1432.12891,243.896484 C1432.12891,263.753255 1435.62826,282.104492 1442.62695,298.950195 C1449.62565,315.795898 1459.18783,330.362956 1471.31348,342.651367 C1483.43913,354.939779 1497.59928,364.542643 1513.79395,371.459961 C1529.98861,378.377279 1547.2819,381.835938 1565.67383,381.835938 Z M1565.67383,314.941406 C1556.55924,314.941406 1547.97363,313.069661 1539.91699,309.326172 C1531.86035,305.582682 1524.86165,300.455729 1518.9209,293.945312 C1512.98014,287.434896 1508.30078,279.866536 1504.88281,271.240234 C1501.46484,262.613932 1499.75586,253.499349 1499.75586,243.896484 C1499.75586,232.828776 1501.46484,222.900391 1504.88281,214.111328 C1508.30078,205.322266 1512.98014,197.875977 1518.9209,191.772461 C1524.86165,185.668945 1531.86035,180.989583 1539.91699,177.734375 C1547.97363,174.479167 1556.55924,172.851562 1565.67383,172.851562 C1574.78841,172.851562 1583.37402,174.845378 1591.43066,178.833008 C1599.4873,182.820638 1606.52669,188.110352 1612.54883,194.702148 C1618.57096,201.293945 1623.33171,208.862305 1626.83105,217.407227 C1630.3304,225.952148 1632.08008,234.781901 1632.08008,243.896484 C1632.08008,253.011068 1630.3304,261.84082 1626.83105,270.385742 C1623.33171,278.930664 1618.57096,286.499023 1612.54883,293.09082 C1606.52669,299.682617 1599.4873,304.972331 1591.43066,308.959961 C1583.37402,312.947591 1574.78841,314.941406 1565.67383,314.941406 Z M1869.62891,381.835938 C1880.53385,381.835938 1891.15397,380.574544 1901.48926,378.051758 C1911.82454,375.528971 1921.67155,371.826172 1931.03027,366.943359 C1940.389,362.060547 1949.09668,356.119792 1957.15332,349.121094 C1965.20996,342.122396 1972.33073,334.228516 1978.51562,325.439453 L1978.51562,325.439453 L1929.6875,276.367188 C1927.08333,282.226562 1923.70605,287.556966 1919.55566,292.358398 C1915.40527,297.159831 1910.68522,301.228841 1905.39551,304.56543 C1900.10579,307.902018 1894.44987,310.465495 1888.42773,312.255859 C1882.4056,314.046224 1876.13932,314.941406 1869.62891,314.941406 C1867.02474,314.941406 1864.42057,314.819336 1861.81641,314.575195 C1859.21224,314.331055 1856.60807,313.802083 1854.00391,312.988281 L1854.00391,312.988281 L1979.00391,162.353516 C1972.81901,153.564453 1965.65755,145.629883 1957.51953,138.549805 C1949.38151,131.469727 1940.63314,125.488281 1931.27441,120.605469 C1921.91569,115.722656 1912.02799,111.979167 1901.61133,109.375 C1891.19466,106.770833 1880.53385,105.46875 1869.62891,105.46875 C1851.23698,105.46875 1833.94368,108.805339 1817.74902,115.478516 C1801.55436,122.151693 1787.39421,131.510417 1775.26855,143.554688 C1763.1429,155.598958 1753.58073,170.166016 1746.58203,187.255859 C1739.58333,204.345703 1736.08398,223.225911 1736.08398,243.896484 C1736.08398,264.078776 1739.58333,282.592773 1746.58203,299.438477 C1753.58073,316.28418 1763.1429,330.810547 1775.26855,343.017578 C1787.39421,355.224609 1801.55436,364.746094 1817.74902,371.582031 C1833.94368,378.417969 1851.23698,381.835938 1869.62891,381.835938 Z M1810.54688,278.564453 C1809.24479,276.285807 1808.18685,273.681641 1807.37305,270.751953 C1806.55924,267.822266 1805.86751,264.770508 1805.29785,261.59668 C1804.72819,258.422852 1804.32129,255.289714 1804.07715,252.197266 C1803.83301,249.104818 1803.71094,246.337891 1803.71094,243.896484 C1803.71094,232.991536 1805.41992,223.185221 1808.83789,214.477539 C1812.25586,205.769857 1816.93522,198.323568 1822.87598,192.138672 C1828.81673,185.953776 1835.81543,181.193034 1843.87207,177.856445 C1851.92871,174.519857 1860.51432,172.851562 1869.62891,172.851562 C1872.88411,172.851562 1876.01725,173.014323 1879.02832,173.339844 C1882.03939,173.665365 1885.09115,174.397786 1888.18359,175.537109 L1888.18359,175.537109 L1810.54688,278.564453 Z" id="de" fill="#EEEEEE"></path>
            </g>
            <circle id="Oval" fill="#EEEEEE" cx="1557" cy="1222" r="33"></circle>
        </g>
    </g>
</svg>